<?xml version="1.0" standalone="no"?>
<!DOCTYPE svg PUBLIC "-//W3C//DTD SVG 20010904//EN"
 "http://www.w3.org/TR/2001/REC-SVG-20010904/DTD/svg10.dtd">
<svg version="1.0" xmlns="http://www.w3.org/2000/svg"
 width="512.000000pt" height="512.000000pt" viewBox="0 0 512.000000 512.000000"
 preserveAspectRatio="xMidYMid meet">
<metadata>
Created by potrace 1.16, written by Peter Selinger 2001-2019
</metadata>
<g transform="translate(0.000000,512.000000) scale(0.100000,-0.100000)"
fill="#000000" stroke="none">
<path d="M798 4945 c-319 -60 -526 -249 -608 -552 -31 -112 -38 -358 -16 -508
59 -401 261 -878 566 -1337 50 -75 59 -94 65 -150 48 -448 222 -810 533 -1110
290 -279 639 -438 1062 -484 43 -4 75 -14 95 -29 134 -101 554 -335 601 -335
59 0 97 63 74 121 -10 23 -31 40 -94 71 -313 157 -703 424 -1041 714 -194 166
-526 498 -689 689 -532 622 -884 1260 -993 1802 -13 64 -18 136 -18 268 0 161
2 188 23 255 68 217 204 348 422 407 101 28 370 25 517 -5 284 -57 665 -213
981 -402 l74 -43 -144 -29 -143 -29 -136 65 c-296 142 -545 219 -761 235 -167
12 -236 1 -326 -52 -45 -27 -58 -43 -85 -97 -32 -64 -32 -65 -32 -225 0 -117
5 -183 19 -245 40 -188 148 -474 249 -660 282 -521 645 -991 1090 -1411 164
-155 169 -159 212 -159 35 0 48 5 64 26 45 58 42 62 -237 341 -264 264 -392
408 -562 638 -112 149 -262 376 -343 517 l-55 96 52 82 53 82 57 -104 c78
-138 206 -344 233 -374 15 -17 33 -24 58 -24 48 0 71 13 84 50 13 40 7 57 -79
190 -78 121 -230 389 -230 405 0 6 19 29 43 51 79 75 70 78 125 -33 433 -862
1210 -1643 2075 -2084 133 -68 131 -63 52 -139 l-46 -45 -92 49 c-51 27 -151
84 -223 127 -146 88 -183 97 -222 56 -25 -26 -29 -82 -9 -108 15 -20 138 -97
286 -179 l113 -63 -83 -53 c-45 -29 -85 -52 -88 -50 -238 130 -523 319 -699
463 -66 53 -100 56 -143 14 -58 -59 -39 -94 117 -213 545 -414 1108 -677 1519
-707 231 -17 358 32 416 161 22 49 24 66 24 213 0 181 -13 255 -76 451 -45
138 -132 345 -189 450 l-39 71 15 58 c9 32 22 94 30 138 7 44 15 82 18 84 15
15 269 -485 329 -647 109 -295 152 -510 144 -725 -3 -82 -12 -165 -21 -200
-28 -104 -83 -202 -150 -269 -213 -213 -585 -237 -1082 -70 -73 24 -144 44
-158 44 -52 0 -89 -66 -66 -120 9 -23 28 -35 86 -60 235 -98 642 -164 857
-140 242 28 469 162 581 343 267 434 109 1188 -427 2028 l-85 134 -12 100
c-27 241 -151 610 -222 659 -31 22 -70 20 -102 -5 -38 -30 -35 -81 8 -168 47
-93 102 -253 128 -375 17 -82 22 -136 22 -286 1 -234 -8 -320 -35 -320 -10 0
-103 43 -205 95 -108 55 -199 95 -216 95 -39 0 -78 -40 -78 -81 0 -23 9 -40
34 -64 32 -30 318 -178 399 -206 20 -7 37 -16 37 -20 0 -8 -50 -142 -55 -147
-8 -8 -313 150 -452 234 -292 176 -489 331 -761 598 -182 178 -182 179 -220
173 -47 -8 -72 -38 -72 -89 0 -38 7 -47 158 -197 336 -336 679 -583 1094 -790
l177 -89 -38 -63 c-21 -35 -43 -65 -49 -67 -13 -4 -220 103 -373 194 -668 395
-1250 976 -1641 1639 -75 128 -183 330 -192 361 -6 19 4 28 60 64 36 23 67 40
68 38 1 -2 27 -55 57 -118 113 -240 252 -469 416 -687 46 -61 91 -114 99 -117
60 -23 124 17 124 76 0 26 -17 55 -76 133 -96 125 -223 318 -299 454 -50 90
-165 323 -165 335 0 5 98 42 135 52 16 4 25 2 25 -5 0 -23 110 -254 176 -372
90 -158 116 -189 159 -189 48 0 64 8 81 42 20 39 15 57 -47 158 -51 84 -179
337 -198 390 l-9 28 90 11 c50 7 92 10 94 9 1 -2 24 -53 49 -113 97 -232 263
-505 423 -695 177 -211 543 -538 676 -605 66 -33 160 -34 223 -4 133 64 176
245 87 366 -13 17 -74 69 -136 116 -305 230 -545 498 -710 794 l-46 82 86 -31
c218 -76 425 -211 608 -395 105 -107 125 -123 153 -123 46 0 68 15 80 53 16
48 5 69 -88 169 -292 311 -672 501 -1097 549 -93 10 -100 13 -173 62 -140 94
-354 218 -516 297 -269 131 -473 204 -720 256 -153 32 -426 42 -547 19z m457
-567 c124 -18 345 -91 518 -170 l68 -31 -89 -47 c-245 -129 -454 -308 -612
-521 -34 -46 -64 -86 -66 -88 -7 -8 -66 132 -104 249 -73 217 -101 450 -67
550 26 74 131 92 352 58z m1484 -234 l62 -7 59 -118 c187 -372 459 -691 810
-948 47 -34 91 -70 98 -79 33 -43 -2 -112 -56 -112 -81 0 -491 359 -684 600
-142 176 -304 445 -381 633 -18 43 -20 42 92 31z m-1576 -2159 c238 -285 536
-584 822 -822 83 -69 154 -130 160 -134 5 -5 -15 -2 -45 7 -504 149 -915 560
-1064 1064 -9 30 -12 50 -7 45 4 -6 65 -77 134 -160z m3123 -403 c64 -170 96
-312 101 -452 7 -185 -8 -216 -116 -241 -73 -18 -366 30 -528 85 -106 36 -224
87 -221 96 2 4 48 41 103 83 212 159 387 370 510 617 l38 75 38 -83 c22 -46
55 -127 75 -180z"/>
<path d="M2903 3025 c-28 -19 -39 -75 -23 -106 13 -23 126 -133 234 -228 45
-39 67 -51 92 -51 46 0 63 8 80 42 25 48 11 79 -69 149 -40 35 -107 96 -149
136 -83 79 -118 91 -165 58z"/>
<path d="M1873 2725 c-27 -19 -38 -67 -22 -97 65 -124 701 -750 874 -860 72
-46 163 31 123 105 -7 14 -69 71 -138 128 -243 203 -451 407 -655 644 -38 44
-73 83 -79 87 -19 13 -81 9 -103 -7z"/>
</g>
</svg>
